.
 
http://www.scenetime.com    -   SceneTime [ We been having it ] !!!


How come you press harder on a remote control when you know the battery is dead? so you better seed to get speed ;)

        Seed back for speed


...................................NFO:.................................................The Sunset Limited 2011 HDRip XviD-SCR0N
   General
      Complete name : The Sunset Limited 2011 HDRip XviD-SCR0N.avi
      Format : AVI
      Format/Info : Audio Video Interleave
      File size : 1.24 GiB
      Duration : 1h 30mn
      Overall bit rate : 1 955 Kbps
      
   Video #0
      ID : 0
      Format : MPEG-4 Visual
      Format profile : Advanced Simple@L5
      Format settings, BVOP : 4
      Format settings, QPel : No
      Format settings, GMC : No warppoints
      Format settings, Matrix : Default (MPEG)
      Codec ID : XVID
      Codec ID/Hint : XviD
      Duration : 1h 30mn
      Bit rate : 1 754 Kbps
      Width : 704 pixels
      Height : 384 pixels
      Display aspect ratio : 16:9
      Frame rate : 23.976 fps
      Color space : YUV
      Chroma subsampling : 4:2:0
      Bit depth : 8 bits
      Scan type : Progressive
      Compression mode : Lossy
      Bits/(Pixel*Frame) : 0.271
      Stream size : 1.11 GiB (90%)
      
   Audio #1
      ID : 1
      Format : AC-3
      Format/Info : Audio Coding 3
      Mode extension : CM (complete main)
      Codec ID : 2000
      Duration : 1h 30mn
      Bit rate mode : Constant
      Bit rate : 192 Kbps
      Channel(s) : 2 channels
      Channel positions : Front: L R
      Sampling rate : 48.0 KHz
      Bit depth : 16 bits
      Compression mode : Lossy
      Stream size : 125 MiB (10%)
      Alignment : Split accross interleaves
      Interleave, duration : 42 ms (1.00 video frame)
      Interleave, preload duration : 500 ms